# xmcd CD database file
# Generated: Thu Feb 13 15:48:03 2003 by KSCD
# 
# Track frame offsets:
#       150
#       15722
#       28637
#       49190
#       78486
#       99674
#       120076
#       138187
#       161200
#
# Disc length: 2436 seconds
#
# Revision: 2
# Processed by: cddbd v1.4PL0 Copyright (c) Steve Scherf et al.
# Submitted via: Kscd 1.3.3
#
DISCID=69098209
DTITLE=The Alvin Thomas Blues Band - Live At Lundinova
DYEAR=1900
DGENRE=
TTITLE0=Fattening Frogs For Snakes
TTITLE1=JoJo
TTITLE2=Hootchie Cootchie Man
TTITLE3=The Way It Is
TTITLE4=Blues With A Feeling
TTITLE5=Pride And Joy
TTITLE6=Leave My Little Girl Alone
TTITLE7=People Dont Do
TTITLE8=Gypsy Woman
EXTD=
EXTT0=
EXTT1=
EXTT2=
EXTT3=
EXTT4=
EXTT5=
EXTT6=
EXTT7=
EXTT8=
PLAYORDER=
